<svg id="visual" viewBox="0 0 900 95" width="900" height="95" xmlns="http://www.w3.org/2000/svg" xmlns:xlink="http://www.w3.org/1999/xlink" version="1.1"><path d="M0 143L21.5 143.3C43 143.7 86 144.3 128.8 149.3C171.7 154.3 214.3 163.7 257.2 162.3C300 161 343 149 385.8 146.3C428.7 143.7 471.3 150.3 514.2 157.3C557 164.3 600 171.7 642.8 165.8C685.7 160 728.3 141 771.2 141.5C814 142 857 162 878.5 172L900 182L900 0L878.5 0C857 0 814 0 771.2 0C728.3 0 685.7 0 642.8 0C600 0 557 0 514.2 0C471.3 0 428.7 0 385.8 0C343 0 300 0 257.2 0C214.3 0 171.7 0 128.8 0C86 0 43 0 21.5 0L0 0Z" fill="#2078ea"></path><path d="M0 106L21.5 108.7C43 111.3 86 116.7 128.8 115.8C171.7 115 214.3 108 257.2 102.7C300 97.3 343 93.7 385.8 93.5C428.7 93.3 471.3 96.7 514.2 96.5C557 96.3 600 92.7 642.8 95.2C685.7 97.7 728.3 106.3 771.2 112.5C814 118.7 857 122.3 878.5 124.2L900 126L900 0L878.5 0C857 0 814 0 771.2 0C728.3 0 685.7 0 642.8 0C600 0 557 0 514.2 0C471.3 0 428.7 0 385.8 0C343 0 300 0 257.2 0C214.3 0 171.7 0 128.8 0C86 0 43 0 21.5 0L0 0Z" fill="#00a4f4"></path><path d="M0 93L21.5 94.3C43 95.7 86 98.3 128.8 95.3C171.7 92.3 214.3 83.7 257.2 83.8C300 84 343 93 385.8 93.3C428.7 93.7 471.3 85.3 514.2 81.2C557 77 600 77 642.8 82.3C685.7 87.7 728.3 98.3 771.2 104C814 109.7 857 110.3 878.5 110.7L900 111L900 0L878.5 0C857 0 814 0 771.2 0C728.3 0 685.7 0 642.8 0C600 0 557 0 514.2 0C471.3 0 428.7 0 385.8 0C343 0 300 0 257.2 0C214.3 0 171.7 0 128.8 0C86 0 43 0 21.5 0L0 0Z" fill="#00c7eb"></path><path d="M0 81L21.5 79.2C43 77.3 86 73.7 128.8 72.7C171.7 71.7 214.3 73.3 257.2 69.7C300 66 343 57 385.8 57.2C428.7 57.3 471.3 66.7 514.2 71C557 75.3 600 74.7 642.8 73.7C685.7 72.7 728.3 71.3 771.2 68.2C814 65 857 60 878.5 57.5L900 55L900 0L878.5 0C857 0 814 0 771.2 0C728.3 0 685.7 0 642.8 0C600 0 557 0 514.2 0C471.3 0 428.7 0 385.8 0C343 0 300 0 257.2 0C214.3 0 171.7 0 128.8 0C86 0 43 0 21.5 0L0 0Z" fill="#00e4be"></path><path d="M0 19L21.5 22.7C43 26.3 86 33.7 128.8 35.5C171.7 37.3 214.3 33.7 257.2 32C300 30.3 343 30.7 385.8 29.8C428.7 29 471.3 27 514.2 26.5C557 26 600 27 642.8 29.3C685.7 31.7 728.3 35.3 771.2 37.8C814 40.3 857 41.7 878.5 42.3L900 43L900 0L878.5 0C857 0 814 0 771.2 0C728.3 0 685.7 0 642.8 0C600 0 557 0 514.2 0C471.3 0 428.7 0 385.8 0C343 0 300 0 257.2 0C214.3 0 171.7 0 128.8 0C86 0 43 0 21.5 0L0 0Z" fill="#70ef20"></path></svg>