<svg id="visual" viewBox="0 0 900 150" width="900" height="150" xmlns="http://www.w3.org/2000/svg" xmlns:xlink="http://www.w3.org/1999/xlink" version="1.1"><path d="M0 112L129 183L257 153L386 133L514 162L643 148L771 132L900 144L900 0L771 0L643 0L514 0L386 0L257 0L129 0L0 0Z" fill="#d7ec20"></path><path d="M0 122L129 150L257 114L386 91L514 117L643 93L771 128L900 113L900 0L771 0L643 0L514 0L386 0L257 0L129 0L0 0Z" fill="#46e697"></path><path d="M0 99L129 92L257 100L386 86L514 113L643 81L771 116L900 107L900 0L771 0L643 0L514 0L386 0L257 0L129 0L0 0Z" fill="#00ccd3"></path><path d="M0 85L129 76L257 75L386 47L514 86L643 63L771 48L900 76L900 0L771 0L643 0L514 0L386 0L257 0L129 0L0 0Z" fill="#00a9ee"></path><path d="M0 52L129 28L257 42L386 46L514 19L643 18L771 31L900 32L900 0L771 0L643 0L514 0L386 0L257 0L129 0L0 0Z" fill="#2078ea"></path></svg>